<svg xmlns="http://www.w3.org/2000/svg" fill="none" viewBox="0 0 128 128">
    <!-- Medical cross with feminine touch -->
    <circle cx="64" cy="64" r="60" fill="#EC4899" stroke="#BE185D" stroke-width="2"/>
    
    <!-- Medical cross -->
    <rect x="58" y="40" width="12" height="48" fill="white" rx="2"/>
    <rect x="46" y="58" width="36" height="12" fill="white" rx="2"/>
    
    <!-- Heart symbol for women's health -->
    <path d="M64 100 C56 94, 44 82, 44 70 C44 62, 50 56, 58 56 C60 56, 62 57, 64 59 C66 57, 68 56, 70 56 C78 56, 84 62, 84 70 C84 82, 72 94, 64 100 Z" fill="white" opacity="0.9"/>
    
    <!-- Small medical plus for extra detail -->
    <rect x="75" y="45" width="4" height="12" fill="white" rx="1"/>
    <rect x="71" y="49" width="12" height="4" fill="white" rx="1"/>
    
    <style>
        @media (prefers-color-scheme: dark) {
            circle { fill: #BE185D; stroke: #EC4899; }
        }
    </style>
</svg>
